<?xml version="1.0" encoding="utf-8"?>
<!-- Generator: Adobe Illustrator 18.0.0, SVG Export Plug-In . SVG Version: 6.00 Build 0)  -->
<!DOCTYPE svg PUBLIC "-//W3C//DTD SVG 1.1//EN" "http://www.w3.org/Graphics/SVG/1.1/DTD/svg11.dtd">
<svg version="1.1" xmlns="http://www.w3.org/2000/svg" xmlns:xlink="http://www.w3.org/1999/xlink" x="0px" y="0px"
	 viewBox="0 0 800 800" enable-background="new 0 0 800 800" xml:space="preserve">
<g id="Layer_2">
	<rect x="-52.5" y="-6.8" fill="#F7A51E" width="880.7" height="819.3"/>
</g>
<g id="Layer_1">
	<polygon fill="#F7931E" points="80.1,-13.1 56.7,-13.1 -143.5,-13.1 -143.5,213.8 -23.4,247.1 -23.4,683.8 156.8,554.2 
		156.8,253.8 276.9,213.8 276.9,-13.1">
			<animateTransform attributeName="transform"
                  attributeType="XML"
                  type="rotate"
                  from="360 60 70"
                  to="0 60 70"
                  dur="320s"
                  repeatCount="indefinite"/>
	</polygon>
	<polygon fill="#F7831E" points="442.5,-165.4 118.4,158.7 610.1,650.3 939.7,320.7 498.4,270.4">
		<animateTransform attributeName="transform"
                          attributeType="XML"
                          type="rotate"
                          from="0 60 70"
                          to="360 60 70"
                          dur="120s"
                          repeatCount="indefinite"/>
	</polygon>
	<polygon fill="#F7831E" points="493.8,311.2 719.5,379.4 935.2,361.5">
		<animateTransform attributeName="transform"
                          attributeType="XML"
                          type="rotate"
                          from="0 60 70"
                          to="360 60 70"
                          dur="120s"
                          repeatCount="indefinite"/>
	</polygon>
	<polygon fill="#F7831E" points="77.1,316.1 56.4,286.1 62.4,620.4 77.1,611.4"></polygon>
	<polygon fill="#F7831E" points="156.8,253.8 136.1,223.8 142.1,554.2 156.8,554.2">
	</polygon>
	<polygon fill="#F79E1E" points="722.1,379.9 608.1,691.7 932.2,367.6 	"/>
	<polygon fill="#F79E1E" points="-143.5,213.8 -23.4,223.8 -23.4,247.1 	"/>
	<polygon fill="#F79E1E" points="291.4,401.2 -88.5,289.4 259.3,150.8 	"/>
	<polygon fill="#F7931E" points="66.7,406.8 387.5,302.1 540.4,844 117.1,795.7">
		<animateTransform attributeName="transform"
                      attributeType="XML"
                      type="rotate"
                      from="0 60 70"
                      to="360 60 70"
                      dur="220s"
                      repeatCount="indefinite"/>
	</polygon>
	<polygon fill="#F7831E" points="387.5,302.1 411.5,745.2 540.4,844">
		<animateTransform attributeName="transform"
              attributeType="XML"
              type="rotate"
              from="0 60 70"
              to="360 60 70"
              dur="320s"
              repeatCount="indefinite"/>
	</polygon>
	<polygon fill="#F79E1E" points="411.5,745.2 117.1,798.3 540.4,844 	"/>
	<polygon fill="#F7931E" points="421.3,370.6 316.7,49.9 858.6,-103.1 810.3,320.3">
			<animateTransform attributeName="transform"
                  attributeType="XML"
                  type="rotate"
                  from="0 60 70"
                  to="360 60 70"
                  dur="520s"
                  repeatCount="indefinite"/>
	</polygon>
	<polygon fill="#F7831E" points="316.7,49.9 759.8,25.8 858.6,-103.1 	"/>
	<polygon fill="#F79E1E" points="759.8,25.8 812.8,320.3 858.6,-103.1 	"/>
	<polygon fill="#F7931E" points="425.4,475 746.1,370.4 899.1,912.3 475.7,864 	"/>
	<polygon fill="#F7831E" points="746.1,370.4 770.1,813.5 899.1,912.3 	"/>
	<polygon fill="#F79E1E" points="778.1,822.5 483.7,875.5 907.1,921.3 	"/>
	<polygon fill="#F79E1E" points="163.7,953.6 -216.2,841.9 131.6,703.2 	"/>
	<polygon fill="#F79E1E" points="800,315.5 800,254.1 711.5,289.4 	"/>
</g>

<animateTransform id="anim1" attributeName="transform" attributeType="XML" type="rotate" from="0" to="30" begin="0s; anim2.end" dur="0.4s" fill="freeze"/>
</svg>
