<?xml version="1.0" encoding="utf-8"?>
<?xml-stylesheet type="text/css" href="../../css/layout.css"?>
<!-- Generator: Adobe Illustrator 18.0.0, SVG Export Plug-In . SVG Version: 6.00 Build 0)  -->
<!DOCTYPE svg PUBLIC "-//W3C//DTD SVG 1.1//EN" "http://www.w3.org/Graphics/SVG/1.1/DTD/svg11.dtd">
<svg version="1.1" id="Layer_1" xmlns="http://www.w3.org/2000/svg" xmlns:xlink="http://www.w3.org/1999/xlink" x="0px" y="0px"
	 viewBox="0 0 200 100" enable-background="new 0 0 200 100" xml:space="preserve">

	<polygon id="animate-polygon" fill="#F7931E" points="33.5,7 30,7 0,7 0,41 18,46 18,92 30,92 33.5,92 45,92 45,47 63,41 63,7 "/>
	<polygon id="animate-polygon" fill="#F7931E" points="198,6 140,6 140,94 199,94 164,50 "/>
	<polygon id="animate-polygon" fill="#F7931E" points="66.2,25.2 114,9.6 136.9,90.4 73.7,83.2 "/>
	<polygon id="animate-polygon" fill="#F7831E" points="114,9.6 117.6,75.7 136.9,90.4 "/>
	<polygon id="animate-polygon" fill="#F7831E" points="164,50 178.1,76.3 199,94 "/>
	<polygon id="animate-polygon" fill="#F7831E" points="45,47 41.9,42.5 42.8,92 45,92 "/>
	<polygon id="animate-polygon" fill="#F79E1E" points="41.9,42.5 63,41 45,47 "/>
	<polygon id="animate-polygon" fill="#F79E1E" points="117.6,75.7 73.7,83.6 136.9,90.4 "/>
	<polygon id="animate-polygon" fill="#F79E1E" points="178.1,76.3 140,94 198,94 "/>
	<polygon id="animate-polygon" fill="#F79E1E" points="0,41 18,42.5 18,46 "/>
	<polygon id="animate-polygon" fill="#F79E1E" points="164,50 140,6 183.5,24.7 "/>
	<polygon id="animate-polygon" fill="#F7831E" points="63,41 57.8,18.2 63,7 "/>
	<polygon id="animate-polygon" fill="#F79E1E" points="57.8,18.2 0,7 63,7 "/>
</svg>
