<?xml version="1.0" encoding="utf-8"?>
<!-- Generator: Adobe Illustrator 18.0.0, SVG Export Plug-In . SVG Version: 6.00 Build 0)  -->
<!DOCTYPE svg PUBLIC "-//W3C//DTD SVG 1.1//EN" "http://www.w3.org/Graphics/SVG/1.1/DTD/svg11.dtd">
<svg version="1.1" id="Layer_1" xmlns="http://www.w3.org/2000/svg" xmlns:xlink="http://www.w3.org/1999/xlink" x="0px" y="0px"
	 viewBox="0 0 50 50" enable-background="new 0 0 50 50" xml:space="preserve">
<!-- <script type="text/ecmascript"><![CDATA[
    function toggleMenu(evt) {
        var svgobj=evt.target;
        svgobj.style.opacity= 0.3;
        svgobj.setAttribute ('x', 300);
    }
]]>
</script> -->
	<circle fill="#FBB03B" cx="24.8" cy="24.7" r="24.1" id="menuClick"/>
	<path fill="#FFFFFF" d="M39.6,18.4H10.4c-0.6,0-1-0.5-1-1v-1.7c0-0.6,0.5-1,1-1h29.1c0.6,0,1,0.5,1,1v1.7
		C40.6,17.9,40.1,18.4,39.6,18.4z"/>
	<path fill="#FFFFFF" d="M39.6,31.5H10.4c-0.6,0-1,0.5-1,1v1.7c0,0.6,0.5,1,1,1h29.1c0.6,0,1-0.5,1-1v-1.7
		C40.6,32,40.1,31.5,39.6,31.5z"/>
	<path fill="#FFFFFF" d="M39.6,26.8H10.4c-0.6,0-1-0.5-1-1v-1.7c0-0.6,0.5-1,1-1h29.1c0.6,0,1,0.5,1,1v1.7
		C40.6,26.4,40.1,26.8,39.6,26.8z"/>
</svg>
