<?xml version="1.0" encoding="utf-8"?>
<!-- Generator: Adobe Illustrator 18.0.0, SVG Export Plug-In . SVG Version: 6.00 Build 0)  -->
<!DOCTYPE svg PUBLIC "-//W3C//DTD SVG 1.1//EN" "http://www.w3.org/Graphics/SVG/1.1/DTD/svg11.dtd">
<svg style="fill: #F7931E;" version="1.1" id="Capa_1" xmlns="http://www.w3.org/2000/svg" xmlns:xlink="http://www.w3.org/1999/xlink" x="0px" y="0px"
	 viewBox="0 0 398.5 398.5" enable-background="new 0 0 398.5 398.5" xml:space="preserve">
<g>
	<g>
		<g id="Layer_5_65_">
			<g>
				<path d="M351.9,124.6c-30,0-120,0-120,0c-2.9,0-5.3-2.4-5.3-5.3V4.8c0,0,0.1-4.8-4.7-4.8C179,0,50.3,0,50.3,0
					c-4.8,0-8.8,4-8.8,8.8v380.9c0,4.8,4,8.8,8.8,8.8h297.8c4.8,0,8.8-4,8.8-8.8V129.9C356.9,129.9,356.9,124.6,351.9,124.6z"/>
				<path d="M250.3,107.9h102.9c3.7,0,4.6-2.1,1.9-4.7L248.5,1.5c-2.7-2.6-4.9-1.6-4.9,2.1V101C243.6,104.8,246.6,107.9,250.3,107.9
					z"/>
			</g>
		</g>
	</g>
</g>
</svg>
