<?xml version="1.0" encoding="utf-8"?>
<!-- Generator: Adobe Illustrator 18.0.0, SVG Export Plug-In . SVG Version: 6.00 Build 0)  -->
<!DOCTYPE svg PUBLIC "-//W3C//DTD SVG 1.1//EN" "http://www.w3.org/Graphics/SVG/1.1/DTD/svg11.dtd">
<svg version="1.1" id="Layer_1" xmlns="http://www.w3.org/2000/svg" xmlns:xlink="http://www.w3.org/1999/xlink" x="0px" y="0px"
	 viewBox="0 0 100 100" enable-background="new 0 0 100 100" xml:space="preserve">
<g id="MOON">
	<path fill="#AAAAAA" d="M47.6,42.2c-4.4,0-8.1-3.6-8.1-8.1s3.6-8.1,8.1-8.1c4.4,0,8.1,3.6,8.1,8.1S52,42.2,47.6,42.2z M47.6,31.4
		c-1.5,0-2.7,1.2-2.7,2.7s1.2,2.7,2.7,2.7s2.7-1.2,2.7-2.7S49.1,31.4,47.6,31.4z"/>
	<path fill="#AAAAAA" d="M71.5,85.1c-4.4,0-8.1-3.6-8.1-8.1c0-4.4,3.6-8.1,8.1-8.1c4.4,0,8.1,3.6,8.1,8.1
		C79.5,81.5,75.9,85.1,71.5,85.1z M71.5,74.3c-1.5,0-2.7,1.2-2.7,2.7s1.2,2.7,2.7,2.7s2.7-1.2,2.7-2.7S73,74.3,71.5,74.3z"/>
	<path fill="#AAAAAA" d="M37.2,76c-7.9,0-14.4-6.4-14.4-14.4s6.4-14.4,14.4-14.4s14.4,6.4,14.4,14.4S45.1,76,37.2,76z M37.2,52.6
		c-5,0-9,4.1-9,9s4.1,9,9,9s9-4.1,9-9S42.2,52.6,37.2,52.6z"/>
	<path fill="#AAAAAA" d="M50.3,95.5C30.3,95.5,12.4,82.1,6.7,63c-3.5-11.6-2.2-23.9,3.6-34.6c5.8-10.7,15.4-18.5,27-22
		c4.2-1.3,8.6-1.9,13-1.9c19.9,0,37.8,13.3,43.5,32.5c3.5,11.6,2.2,23.9-3.6,34.6c-5.8,10.7-15.4,18.5-27,22
		C59,94.8,54.7,95.5,50.3,95.5z M50.3,12.5c-3.6,0-7.2,0.5-10.7,1.6C30,17,22.1,23.4,17.3,32.2c-4.8,8.8-5.8,18.9-2.9,28.5
		c4.7,15.7,19.5,26.7,35.9,26.7c3.6,0,7.2-0.5,10.7-1.6c9.6-2.9,17.5-9.3,22.2-18.1C88,59,89,48.9,86.2,39.3
		C81.5,23.5,66.7,12.5,50.3,12.5z"/>
	<path fill="#AAAAAA" d="M34.1,28.8c0,2-1.6,3.6-3.6,3.6l0,0c-2,0-3.6-1.6-3.6-3.6l0,0c0-2,1.6-3.6,3.6-3.6l0,0
		C32.4,25.2,34.1,26.8,34.1,28.8L34.1,28.8z"/>
	<path fill="#AAAAAA" d="M62.9,63.1c0,2-1.6,3.6-3.6,3.6l0,0c-2,0-3.6-1.6-3.6-3.6l0,0c0-2,1.6-3.6,3.6-3.6l0,0
		C61.3,59.5,62.9,61.1,62.9,63.1L62.9,63.1z"/>
	<path fill="#AAAAAA" d="M77,35.3c0,2-1.6,3.6-3.6,3.6l0,0c-2,0-3.6-1.6-3.6-3.6l0,0c0-2,1.6-3.6,3.6-3.6l0,0
		C75.4,31.8,77,33.4,77,35.3L77,35.3z"/>
</g>
</svg>
