<?xml version="1.0" encoding="utf-8"?>
<!-- Generator: Adobe Illustrator 18.0.0, SVG Export Plug-In . SVG Version: 6.00 Build 0)  -->
<!DOCTYPE svg PUBLIC "-//W3C//DTD SVG 1.1//EN" "http://www.w3.org/Graphics/SVG/1.1/DTD/svg11.dtd">
<svg version="1.1" id="Layer_1" xmlns="http://www.w3.org/2000/svg" xmlns:xlink="http://www.w3.org/1999/xlink" x="0px" y="0px"
	 viewBox="0 0 100 100" enable-background="new 0 0 100 100" xml:space="preserve">
<g id="COMET">
	<circle fill="#AAAAAA" cx="65.7" cy="75.2" r="7"/>
	<path fill="#AAAAAA" d="M65.3,95.5c-1.9,0-3.8-0.2-5.7-0.7c-5.8-1.5-10.7-5.2-13.7-10.4L18,37.2c-1-1.6-0.4-3.7,1.2-4.7
		c1.6-1,3.7-0.4,4.7,1.2l28,47.2c2.1,3.6,5.5,6.2,9.6,7.2c4.1,1.1,8.3,0.5,11.9-1.6c3.6-2.1,6.2-5.5,7.2-9.6c1.1-4,0.5-8.3-1.6-11.9
		L56,28.2c-1-1.6-0.5-3.7,1.1-4.7c1.6-1,3.7-0.5,4.7,1.1l22.8,37c6.3,10.7,2.7,24.5-8,30.8C73.2,94.5,69.3,95.5,65.3,95.5z"/>
	<path fill="#AAAAAA" d="M63.6,59.4c-0.8,0-1.5-0.4-2-1.1l-28-47.2C33,10.1,33.4,8.7,34.5,8c1.1-0.6,2.5-0.3,3.1,0.8l28,47.2
		c0.6,1.1,0.3,2.5-0.8,3.1C64.4,59.3,64,59.4,63.6,59.4z"/>
	<path fill="#AAAAAA" d="M44.9,55.5c-1.2,0-2.3-0.6-2.9-1.7L14,6.6c-1-1.6-0.4-3.7,1.2-4.7c1.6-1,3.7-0.4,4.7,1.2l28,47.2
		c1,1.6,0.4,3.7-1.2,4.7C46.1,55.3,45.5,55.5,44.9,55.5z"/>
</g>
</svg>