<?xml version="1.0" encoding="utf-8"?>
<!-- Generator: Adobe Illustrator 18.0.0, SVG Export Plug-In . SVG Version: 6.00 Build 0)  -->
<!DOCTYPE svg PUBLIC "-//W3C//DTD SVG 1.1//EN" "http://www.w3.org/Graphics/SVG/1.1/DTD/svg11.dtd">
<svg version="1.1" id="Layer_1" xmlns="http://www.w3.org/2000/svg" xmlns:xlink="http://www.w3.org/1999/xlink" x="0px" y="0px"
	 viewBox="0 0 100 100" enable-background="new 0 0 100 100" xml:space="preserve">
<path fill="#AAAAAA" d="M53.7,17.7c-4.1,0-7.4-3.3-7.4-7.4s3.3-7.4,7.4-7.4s7.4,3.3,7.4,7.4S57.8,17.7,53.7,17.7z M53.7,7.4
	c-1.6,0-2.8,1.3-2.8,2.8c0,1.6,1.3,2.8,2.8,2.8s2.8-1.3,2.8-2.8C56.6,8.7,55.3,7.4,53.7,7.4z"/>
<path fill="#AAAAAA" d="M50.1,83.1c-17.4,0-31.6-14.2-31.6-31.6c0-17.4,14.2-31.6,31.6-31.6c17.4,0,31.6,14.2,31.6,31.6
	C81.6,68.9,67.5,83.1,50.1,83.1z M50.1,26.8c-13.6,0-24.7,11.1-24.7,24.7c0,13.6,11.1,24.7,24.7,24.7c13.6,0,24.7-11.1,24.7-24.7
	C74.8,37.9,63.7,26.8,50.1,26.8z"/>
<path fill="#AAAAAA" d="M88.1,14c-4.5-4.2-15.3-0.6-27.7,8.4c1.7,0.4,3.1,1.2,4.2,2.2c8.2-5.5,14.8-7.7,17.6-5.2
	c5,4.6-3.6,23.1-20,40.9S27.7,88.4,22.7,83.7c-2.5-2.3-1.3-8.2,2.5-15.6c-1.5-1.1-2.7-2.5-3.4-4.2c-8.1,13.3-11.1,24.6-6.5,28.8
	c7.1,6.5,29.1-5.8,49.2-27.6C84.6,43.5,95.2,20.6,88.1,14z"/>
</svg>
