<?xml version="1.0" encoding="utf-8"?>
<!-- Generator: Adobe Illustrator 18.0.0, SVG Export Plug-In . SVG Version: 6.00 Build 0)  -->
<!DOCTYPE svg PUBLIC "-//W3C//DTD SVG 1.1//EN" "http://www.w3.org/Graphics/SVG/1.1/DTD/svg11.dtd">
<svg version="1.1" id="Layer_1" xmlns="http://www.w3.org/2000/svg" xmlns:xlink="http://www.w3.org/1999/xlink" x="0px" y="0px"
	 viewBox="0 0 290.1 195.6" enable-background="new 0 0 290.1 195.6" xml:space="preserve">
<ellipse opacity="0.47" fill="#58595B" cx="145" cy="176.3" rx="139.8" ry="7.2"/>
<path fill="#F1F2F2" d="M265.2,3.9H25.4c-7,0-12.7,5.7-12.7,12.7v147c0,7,5.7,12.7,12.7,12.7h239.8c7,0,12.7-5.7,12.7-12.7v-147
	C277.9,9.6,272.2,3.9,265.2,3.9z M251.4,162.4H34.8V17.1h216.6V162.4z"/>
<path opacity="0.18" fill="#FFFFFF" d="M25.4,3.9h165.7L81.2,176.2H25.4c-7,0-12.7-5.7-12.7-12.7v-147C12.7,9.6,18.4,3.9,25.4,3.9z"
	/>
<circle fill="#D1D3D4" cx="263.5" cy="90.1" r="6.4"/>
<circle fill="#D1D3D4" cx="24.2" cy="89" r="1.7"/>
</svg>
