<?xml version="1.0" encoding="utf-8"?>
<!-- Generator: Adobe Illustrator 18.0.0, SVG Export Plug-In . SVG Version: 6.00 Build 0)  -->
<!DOCTYPE svg PUBLIC "-//W3C//DTD SVG 1.1//EN" "http://www.w3.org/Graphics/SVG/1.1/DTD/svg11.dtd">
<svg version="1.1" id="Layer_2" xmlns="http://www.w3.org/2000/svg" xmlns:xlink="http://www.w3.org/1999/xlink" x="0px" y="0px"
	 viewBox="0 0 300 300" style="enable-background:new 0 0 300 300;" xml:space="preserve">
<g>
	<path d="M289.237,131.716l-19.404-20.069c-0.02-0.021-0.023-0.053-0.005-0.077l19.649-27.206c0.635-0.879,0.853-2.012,0.591-3.064
		c-0.263-1.052-0.988-1.949-1.961-2.427L178.644,25.186c-0.86-0.422-1.849-0.5-2.765-0.217l-24.861,7.665
		c-0.011,0.004-0.024,0.004-0.035,0l-24.861-7.665c-0.916-0.282-1.905-0.205-2.765,0.217L13.895,78.873
		c-0.974,0.478-1.699,1.375-1.962,2.427c-0.263,1.052-0.044,2.185,0.591,3.064l19.603,27.143c0.017,0.023,0.015,0.056-0.005,0.077
		l-19.358,20.132c-0.856,0.895-1.21,2.222-0.801,3.483l0.041,0.126l19.691,60.648c0.595,1.824,2.568,3.033,4.689,2.379
		c1.572-0.485,2.534-2.084,2.534-3.729v-11.93c0-0.065,0.09-0.084,0.115-0.023l7.738,18.326c0.647,1.527,2.289,2.534,4.113,2.197
		c1.789-0.33,3-2.037,3-3.857v-14.362c0-0.06,0.079-0.083,0.111-0.032l14.927,23.602c0.01,0.016,0.012,0.036,0.005,0.054
		l-6.05,15.612c-0.67,1.748,0.069,3.771,1.774,4.638l20.056,10.198c0.032,0.016,0.043,0.058,0.022,0.088
		c-1.472,2.132-2.957,4.255-4.415,6.396l-0.025,0.036c-1.102,1.617-0.716,3.818,0.87,4.963l21.415,15.465l10.729,7.748l10.797,7.656
		l0.109,0.077c0.634,0.445,1.448,0.63,2.262,0.441c1.52-0.352,2.467-1.869,2.115-3.389l-3.08-13.306
		c-0.012-0.051,0.043-0.091,0.088-0.065c3.582,2.055,9.024,5.946,12.61,7.995c4.949,2.825,13.322,8.645,13.704,8.787
		c0.015,0.006,0.007,0.006,0.022,0c0.99-0.363,5.885-4.599,12.839-8.816c3.245-1.97,8.347-5.783,11.589-7.757
		c0.045-0.028,0.101,0.013,0.089,0.065l-3.032,13.097c-0.172,0.756-0.036,1.589,0.448,2.271c0.903,1.273,2.666,1.573,3.939,0.67
		l0.1-0.07l10.797-7.656l10.728-7.748l21.457-15.495c1.554-1.125,1.945-3.293,0.858-4.889l-0.054-0.08
		c-1.458-2.141-2.943-4.264-4.415-6.396c-0.021-0.03-0.01-0.071,0.022-0.088l20.056-10.198c1.665-0.854,2.465-2.854,1.774-4.638
		l-6.05-15.612c-0.007-0.018-0.005-0.038,0.005-0.054l14.927-23.602c0.032-0.051,0.111-0.028,0.111,0.032v14.581
		c0.002,1.658,1.124,3.225,2.935,3.624c1.777,0.392,3.556-0.71,4.263-2.386l7.652-18.124c0.025-0.06,0.115-0.042,0.115,0.023v12.137
		c0.002,1.678,1.153,3.235,2.927,3.621c1.903,0.413,3.775-0.872,4.376-2.724l19.611-60.402l0.046-0.139
		C290.421,134.009,290.156,132.667,289.237,131.716z M270.486,171.44v-7.328c-0.002-1.658-1.124-3.225-2.935-3.624
		c-1.777-0.392-3.555,0.71-4.263,2.386l-7.768,18.397v-9.282c-0.012-1.513-0.95-3.019-2.616-3.541
		c-1.641-0.513-3.417,0.3-4.336,1.754l-18.77,29.679c-0.026,0.042-0.089,0.036-0.107-0.01l-2.078-5.362
		c-0.007-0.018-0.005-0.038,0.006-0.055l23.358-35.678l0.19-0.291c0.413-0.636,0.574-1.435,0.381-2.23l-8.26-34.117
		c-0.017-0.07-0.12-0.056-0.118,0.016l0.993,33.492c0,0.012-0.003,0.024-0.01,0.035l-23.788,36.335
		c-0.621,0.962-0.8,2.216-0.355,3.366l10.98,28.335c0.011,0.029-0.001,0.061-0.029,0.075l-17.927,9.116
		c-0.027,0.014-0.059,0.005-0.076-0.019c-3.565-5.126-7.134-10.249-10.692-15.38c-0.009-0.012-0.012-0.027-0.01-0.042l4.824-36.783
		c0.002-0.006,0.004-0.013,0.006-0.019l13.316-26.449l13.514-27.102c0.559-1.141,0.606-2.545-0.013-3.765l-11.42-22.566
		c-0.779-1.532-2.463-2.497-4.266-2.27l-26.743,3.367c-0.068,0.009-0.095-0.085-0.032-0.114l17.802-8.154
		c0.011-0.005,0.024-0.007,0.037-0.004l21.778,4.314l0.411-1.2l-21.485-10.767c-0.727-0.36-1.615-0.411-2.415-0.055l-0.424,0.189
		l-21.218,9.451l-0.05-0.162c-0.444-1.415-1.667-2.612-3.479-2.847c-1.564-0.203-3.084,0.651-3.895,2.003l-0.028,0.047l-5.807,9.688
		c-0.348,0.585-0.565,1.279-0.584,2.008c-0.059,2.271,1.734,4.16,4.005,4.219l0.027,0.001l11.026,0.287
		c0.185,0.004,0.395-0.005,0.584-0.028l0.022-0.003l28.534-3.541c0.025-0.003,0.049,0.01,0.061,0.032l9.119,18.018l-0.906,1.826
		l-12.445-14.711c-1.024-1.208-2.755-1.668-4.286-1.011l-22.777,9.772c-0.017,0.007-0.036,0.006-0.052-0.002l-16.83-9.1
		l-1.253,1.761l15.809,14.463c0.849,0.774,2.105,1.029,3.229,0.547l0.377-0.162l21.859-9.378c0.024-0.01,0.052-0.004,0.069,0.016
		l4.19,4.953c0.025,0.03,0.016,0.075-0.019,0.092l-14.453,7.227l0.566,1.632l18.242-3.777c0.022-0.004,0.044,0.003,0.058,0.02
		l4.104,4.852c0.015,0.018,0.019,0.044,0.008,0.065l-2.389,4.814c-0.008,0.017-0.024,0.029-0.043,0.032l-15.597,2.784l0.005,1.816
		l12.201,2.116c0.039,0.007,0.061,0.05,0.043,0.086l-2.236,4.506l-13.358,27.179l-0.025,0.049c-0.185,0.38-0.311,0.796-0.364,1.239
		l-4.735,39.012l-0.006,0.052c-0.107,0.898,0.107,1.838,0.673,2.633c6.211,8.708,12.362,17.459,18.613,26.139
		c0.019,0.026,0.013,0.063-0.012,0.083l-18.206,13.83l-10.538,8.005l-4.488,3.471c-0.044,0.034-0.106-0.004-0.096-0.058l2.12-11.434
		l0.019-0.101c0.109-0.596-0.006-1.234-0.372-1.776c-0.742-1.101-2.237-1.392-3.338-0.65c-4.802,3.236-9.537,6.575-14.3,9.87
		c-4.219,2.922-8.427,5.862-12.617,8.829c-0.02,0.014-0.047,0.015-0.067,0.001c-4.479-2.977-8.976-5.926-13.483-8.858
		c-5.076-3.298-10.125-6.639-15.237-9.877c-0.494-0.311-1.106-0.448-1.725-0.333c-1.306,0.242-2.168,1.497-1.926,2.803l0.017,0.093
		l2.12,11.434c0.01,0.054-0.052,0.092-0.096,0.058l-4.487-3.47l-10.538-8.005l-18.206-13.83c-0.026-0.02-0.031-0.056-0.012-0.083
		c6.251-8.68,12.402-17.431,18.613-26.139c0.524-0.737,0.79-1.671,0.672-2.64l-0.005-0.045l-4.736-39.012
		c-0.053-0.419-0.176-0.853-0.372-1.254l-0.017-0.035L89.062,150.5l-2.236-4.506c-0.018-0.036,0.004-0.079,0.043-0.086l12.201-2.116
		l0.005-1.816l-15.597-2.784c-0.019-0.003-0.035-0.015-0.043-0.032l-2.389-4.814c-0.011-0.021-0.008-0.047,0.008-0.065l4.104-4.852
		c0.014-0.017,0.036-0.024,0.058-0.02l18.242,3.777l0.566-1.632l-14.453-7.227c-0.035-0.017-0.044-0.063-0.019-0.092l4.19-4.953
		c0.017-0.02,0.045-0.027,0.069-0.016l21.859,9.378l0.379,0.163c1.056,0.451,2.324,0.277,3.227-0.549l15.809-14.463l-1.253-1.761
		l-16.829,9.1c-0.016,0.009-0.035,0.01-0.052,0.002l-22.778-9.772c-1.456-0.623-3.21-0.261-4.286,1.011l-12.445,14.711l-0.906-1.826
		l9.119-18.018c0.011-0.023,0.036-0.036,0.061-0.032l28.534,3.541l0.044,0.006c0.184,0.022,0.372,0.03,0.562,0.025l11.026-0.287
		l0.045-0.001c0.764-0.022,1.534-0.259,2.219-0.732c1.829-1.263,2.171-3.85,1.028-5.757l-5.651-9.427l-0.051-0.085
		c-0.663-1.102-1.85-1.897-3.345-1.97c-1.853-0.091-3.495,1.216-4.049,2.986l-0.009,0.028l-21.218-9.451l-0.436-0.194
		c-0.743-0.326-1.62-0.332-2.402,0.06L70.53,96.719l0.411,1.2l21.778-4.314c0.012-0.002,0.025-0.001,0.037,0.004l17.802,8.154
		c0.062,0.029,0.036,0.123-0.032,0.114L83.783,98.51c-1.706-0.21-3.447,0.648-4.266,2.27l-11.42,22.566
		c-0.566,1.137-0.624,2.541-0.013,3.765l13.514,27.102l13.316,26.449c0.002,0.006,0.004,0.013,0.006,0.019l4.824,36.783
		c0.002,0.015-0.002,0.03-0.01,0.042c-3.558,5.131-7.128,10.254-10.692,15.38c-0.017,0.025-0.05,0.033-0.076,0.019l-17.927-9.116
		c-0.027-0.014-0.04-0.046-0.029-0.075l10.98-28.335c0.407-1.071,0.321-2.334-0.355-3.366L57.845,155.68
		c-0.007-0.01-0.01-0.022-0.01-0.035l0.993-33.492c0.002-0.072-0.101-0.086-0.118-0.016l-8.26,34.117
		c-0.176,0.738-0.062,1.554,0.387,2.238l0.185,0.283l23.358,35.678c0.011,0.016,0.013,0.036,0.006,0.055l-2.078,5.362
		c-0.018,0.046-0.08,0.052-0.107,0.01L53.31,170.01c-0.819-1.273-2.416-2.044-4.104-1.594c-1.662,0.444-2.727,2.08-2.727,3.8v8.759
		c0,0.065-0.09,0.084-0.115,0.023l-7.738-18.326c-0.647-1.527-2.289-2.534-4.113-2.197c-1.789,0.33-2.999,2.037-2.999,3.857v7.109
		l-11.83-36.437c-0.006-0.02-0.002-0.041,0.011-0.057l36.344-43.864c0.499-0.606,0.459-1.508-0.117-2.062
		c-0.604-0.581-1.565-0.562-2.145,0.042l-16.355,17.008c-0.026,0.027-0.07,0.024-0.092-0.006l-16.192-22.42
		c-0.022-0.03-0.011-0.073,0.022-0.089l104.139-51.077c0.014-0.007,0.029-0.008,0.044-0.003l24.549,7.569
		c0.722,0.223,1.495,0.223,2.217,0l24.549-7.569c0.015-0.004,0.03-0.003,0.044,0.003L280.84,83.556
		c0.033,0.016,0.044,0.059,0.022,0.089l-16.25,22.501c-0.022,0.03-0.066,0.033-0.092,0.007l-16.418-16.981
		c-0.486-0.5-1.287-0.556-1.835-0.104c-0.578,0.476-0.66,1.33-0.184,1.907l36.224,43.965c0.013,0.016,0.017,0.037,0.011,0.057
		L270.486,171.44z"/>
	<path d="M156.103,86.823l-0.632,0.632L151,91.927l-4.471-4.471l-0.632-0.633c-0.872-0.874-2.279-0.987-3.286-0.216l-8.374,6.417
		l0.445,1.187l7.644-0.487l6.056,6.056L151,97.162l2.618,2.618l6.056-6.056l7.644,0.487l0.445-1.187l-8.374-6.417
		C158.409,85.855,157,85.927,156.103,86.823z"/>
	<path d="M186.643,64.327l-0.281,0.209l-7.09,5.268l-13.583-3.596l12.737,10.841c0.936,0.797,2.33,0.875,3.359,0.111l0.565-0.42
		l7.098-5.273l29.237,6.37l0.241-0.731l-29.198-13.114C188.75,63.554,187.566,63.642,186.643,64.327z"/>
	<path d="M158.612,140.17L151,147.45l-7.612-7.28c-0.694-0.664-1.621-1.033-2.582-1.027l-6.37,0.039l0.004,0.648
		c-0.033-0.063-0.065-0.127-0.097-0.191c-1.084-1.989-2.162-3.981-3.419-5.905l-2.38,0.893c0.318,2.276,0.815,4.486,1.306,6.697
		c0.534,2.196,1.08,4.386,1.714,6.544c0.196,0.657,0.657,1.243,1.32,1.57l0.474,0.234c1.329,0.655,2.674,1.266,4.028,1.855
		c1.353,0.592,2.693,1.216,4.061,1.769c1.831,0.773,3.679,1.499,5.53,2.218l-0.029,4.486l-6.292,2.294l-16.972-9.028
		c-0.53-0.279-1.149-0.448-1.789-0.451l-0.039,0l-10.436-0.052c-0.172,0-0.369,0.011-0.544,0.035
		c-2.171,0.29-3.696,2.284-3.406,4.455l0.005,0.04l5.504,41.262c0.061,0.442,0.197,0.898,0.412,1.318l0.019,0.037l1.505,2.938
		v25.161c0,0.627,0.151,1.219,0.45,1.769l5.09,9.353c0.694,1.275,2.063,2.025,3.511,1.923l26.247-1.842h1.571l26.247,1.842
		c1.448,0.102,2.817-0.649,3.511-1.923l5.09-9.353c0.3-0.551,0.45-1.143,0.45-1.769v-24.849l1.647-3.177
		c0.217-0.422,0.379-0.91,0.448-1.407l5.653-41.241l0.008-0.053c0.025-0.189,0.037-0.383,0.036-0.579
		c-0.013-2.36-1.936-4.263-4.296-4.25l-10.436,0.055l-0.064,0c-0.645,0.006-1.299,0.163-1.908,0.487l-16.854,8.972l-6.27-2.284
		l-0.025-3.874l13.882-5.443l0.426-0.167c0.867-0.347,1.56-1.093,1.799-2.07l3.222-13.166l-4.172-1.564l-2.992,5.782l-5.995-0.037
		C160.233,139.138,159.306,139.506,158.612,140.17z M130.48,165.652l-1.097,9.824l-0.023,0.367l-0.07,5.861l-1.962-3.276
		l-1.219-15.045L130.48,165.652z M179.68,227.068l-3.503,6.436l-24.003-1.684l-0.259-0.009h-1.831l-0.259,0.009l-24.003,1.684
		l-3.503-6.436v-9.769l4.585,8.948c0.688,1.335,2.058,2.276,3.665,2.338l0.027,0.001l20.241-1.078h0.323l20.242,1.097
		c1.513-0.06,2.961-0.908,3.708-2.349l4.568-8.813V227.068z M175.862,163.742l-1.19,14.687l-1.961,3.276l-0.07-5.861l-0.023-0.367
		l-1.061-9.501L175.862,163.742z M165.463,194.874c0.02,1.655,1.139,3.098,2.736,3.53s3.291-0.252,4.141-1.672l9.127-15.241
		c0.289-0.483,0.468-1.041,0.514-1.603l1.53-18.886l2.136,0.011l-4.984,35.625l-10.268,23.347l-19.397,2.495l-19.42-2.479
		l-10.4-23.331l-5.164-35.964l2.45-0.012l1.555,19.193c0.045,0.561,0.224,1.119,0.514,1.603l9.127,15.241
		c0.85,1.42,2.544,2.103,4.141,1.672c1.597-0.431,2.717-1.875,2.736-3.53l0.11-9.23l5.861-2.149l6.843,3.405
		c1.041,0.518,2.258,0.518,3.298,0l6.843-3.405l5.861,2.149L165.463,194.874z M160.2,170.344c1.041,0.387,2.251,0.355,3.314-0.197
		l0.039-0.02l0.962-0.499l0.724,6.487l0.019,1.608l-4.714-1.728c-0.955-0.35-2.013-0.292-2.924,0.161L151,179.452l-6.621-3.295
		c-0.91-0.453-1.969-0.512-2.924-0.161l-4.714,1.728l0.019-1.609l0.76-6.807l1.066,0.553l0.047,0.024
		c0.917,0.471,2.021,0.568,3.062,0.177l8.881-3.34L160.2,170.344z"/>
	<path d="M127.28,51.45l22.445,8.23h2.549l22.445-8.23l34.458,11.307l0.217-0.503l-33.297-18.112
		c-0.727-0.391-1.623-0.487-2.459-0.181l-0.283,0.104L151,52.261l-22.355-8.197l-0.294-0.108c-0.777-0.281-1.665-0.241-2.448,0.185
		L92.605,62.254l0.217,0.503L127.28,51.45z"/>
	<path d="M122.728,69.804l-7.09-5.268l-0.284-0.212c-0.862-0.638-2.035-0.803-3.083-0.333L83.073,77.105l0.241,0.731l29.237-6.37
		l7.098,5.273l0.566,0.421c0.986,0.733,2.382,0.718,3.358-0.113l12.737-10.841L122.728,69.804z"/>
</g>
</svg>
