<?xml version="1.0" encoding="utf-8"?>
<!-- Generator: Adobe Illustrator 18.0.0, SVG Export Plug-In . SVG Version: 6.00 Build 0)  -->
<!DOCTYPE svg PUBLIC "-//W3C//DTD SVG 1.1//EN" "http://www.w3.org/Graphics/SVG/1.1/DTD/svg11.dtd">
<svg version="1.1" id="Layer_1" xmlns="http://www.w3.org/2000/svg" xmlns:xlink="http://www.w3.org/1999/xlink" x="0px" y="0px"
	 viewBox="0 0 300 300" style="enable-background:new 0 0 300 300;" xml:space="preserve">
<style type="text/css">
	.st0{opacity:0.95;fill:#E48D2B;}
	.st1{opacity:0.85;fill:#C2B59B;}
	.st2{fill:#FFFFFF;}
	.st3{opacity:0.79;fill:#E48D2B;}
	.st4{opacity:0.61;fill:#C49A6C;}
	.st5{opacity:0.7;}
	.st6{opacity:0.46;fill:#C49A6C;}
	.st7{opacity:0.79;fill:#C2B59B;}
	.st8{fill:#C2B59B;}
	.st9{opacity:0.76;fill:#C2B59B;}
	.st10{opacity:0.72;fill:#C49A6C;}
	.st11{opacity:0.91;}
	.st12{fill:#C49A6C;}
</style>
<polygon class="st0" points="217.635,206.865 193.477,203.399 196.344,211.937 204.807,223.927 214.71,223.927 219.379,217.293 "/>
<polygon class="st1" points="157.668,64.506 111.955,64.506 109.497,87.316 97.701,109.013 97.185,145.176 109.965,184.662 
	137.515,211.937 157.668,211.937 "/>
<polygon class="st2" points="204.807,223.927 183.182,261.681 159.118,277.987 135.055,261.681 113.43,223.927 104.342,223.927 
	124.76,268.481 151.23,280.912 159.118,283.837 167.007,280.912 193.477,268.481 213.894,223.927 "/>
<polygon class="st3" points="243.145,211.937 223.772,203.399 213.894,199.743 193.477,203.399 217.635,206.865 217.635,217.293 
	195.744,263.535 159.118,283.837 122.493,263.535 100.602,217.293 100.602,206.865 124.76,203.399 104.342,199.743 94.464,203.399 
	75.092,211.937 69.973,231.187 74.361,248.372 104.342,260.437 110.924,272.867 159.118,297 207.313,272.867 213.894,260.437 
	243.876,248.372 248.263,231.187 "/>
<polygon class="st0" points="100.602,206.865 124.76,203.399 121.893,211.937 113.43,223.927 103.527,223.927 98.858,217.293 "/>
<polygon class="st4" points="220.584,104.563 229.432,106.788 223.534,137.387 217.635,138.5 "/>
<polygon class="st5" points="124.933,2.195 193.717,8.871 205.514,22.224 211.413,34.463 214.686,47.815 222.885,61.168 
	223.772,92.262 221.568,132.38 219.601,106.788 208.788,86.76 203.872,60.611 157.668,63.949 87.928,45.043 "/>
<polygon class="st1" points="157.668,64.506 203.381,64.506 205.838,87.316 217.635,109.013 218.151,145.176 205.371,184.662 
	177.821,211.937 157.668,211.937 "/>
<polygon class="st6" points="177.821,211.937 205.371,184.661 218.151,145.176 217.635,109.013 205.838,87.316 203.381,64.506 
	157.668,64.506 145.894,151.893 159.647,155.733 157.916,165.268 158.645,172.948 164.169,177.741 167.007,198.059 167.007,211.937 
	"/>
<polygon class="st5" points="168.925,111.211 181.442,104.6 204.807,104.6 197.297,92.321 182.276,96.099 168.925,105.544 "/>
<polygon class="st7" points="156.67,170.973 161.027,170.699 164.9,167.137 172.162,170.699 178.312,173.165 171.678,177.001 
	156.67,177.001 "/>
<polygon class="st7" points="156.67,176.29 171.194,176.29 178.312,173.713 173.131,179.578 168.047,181.77 155.702,181.77 "/>
<polygon class="st8" points="94.751,104.563 85.904,106.788 91.802,137.387 97.701,138.5 "/>
<polygon class="st5" points="151.121,5.533 121.619,12.209 109.822,22.224 103.923,34.463 100.65,47.815 92.451,61.168 
	91.563,92.262 93.768,132.38 95.734,106.788 106.548,86.76 111.464,60.611 157.668,63.949 117.252,40.736 193.477,9.603 "/>
<polygon class="st5" points="143.486,111.211 130.969,104.6 107.604,104.6 115.114,92.321 130.135,96.099 143.486,105.544 "/>
<polygon class="st7" points="158.666,170.973 154.309,170.699 150.436,167.137 143.173,170.699 137.023,173.165 143.658,177.001 
	158.666,177.001 "/>
<polygon class="st7" points="158.666,176.29 144.142,176.29 137.023,173.713 142.205,179.578 147.289,181.77 159.634,181.77 "/>
<path class="st8" d="M158.666,170.973"/>
<polygon class="st2" points="172.944,118.735 178.794,112.065 193.419,111.211 201.882,116.371 193.419,121.531 175.387,121.531 "/>
<polygon class="st2" points="142.392,118.735 136.542,112.065 121.917,111.211 113.454,116.371 121.917,121.531 139.948,121.531 "/>
<polygon class="st9" points="193.477,196.437 196.344,211.937 204.807,223.927 183.182,261.681 168.925,272.867 158.684,278.791 
	157.668,211.937 177.821,211.937 "/>
<polygon class="st10" points="193.477,196.437 196.344,211.937 204.807,223.927 183.182,261.681 168.925,272.867 158.684,278.791 
	157.668,211.937 177.821,211.937 "/>
<polygon class="st9" points="125.284,198.412 120.442,211.937 113.954,223.927 133.605,261.681 147.861,272.867 159.127,278.791 
	159.118,211.937 138.965,211.937 "/>
<polygon class="st11" points="87.928,44.248 100.65,47.815 93.581,59.328 "/>
<polygon class="st12" points="193.477,203.399 193.477,196.437 177.821,211.937 157.668,211.937 157.722,213.615 178.312,217.293 
	"/>
<polygon class="st5" points="189.275,111.211 190.552,112.968 190.552,115.649 189.275,118.086 186.501,118.665 183.522,118.086 
	182.45,116.371 182.45,112.968 183.522,111.211 "/>
<polygon class="st5" points="133.7,111.211 134.977,112.968 134.977,115.649 133.7,118.086 130.926,118.665 127.947,118.086 
	126.875,116.371 126.875,112.968 127.947,111.211 "/>
<g>
	<g>
		<path class="st2" d="M231.079,174.09c3.224,0,3.224-5,0-5C227.855,169.09,227.855,174.09,231.079,174.09L231.079,174.09z"/>
	</g>
</g>
</svg>
