<?xml version="1.0" encoding="utf-8"?>
<!-- Generator: Adobe Illustrator 18.0.0, SVG Export Plug-In . SVG Version: 6.00 Build 0)  -->
<!DOCTYPE svg PUBLIC "-//W3C//DTD SVG 1.1//EN" "http://www.w3.org/Graphics/SVG/1.1/DTD/svg11.dtd">
<svg version="1.1" id="Layer_1" xmlns="http://www.w3.org/2000/svg" xmlns:xlink="http://www.w3.org/1999/xlink" x="0px" y="0px"
	 viewBox="0 0 400 400" enable-background="new 0 0 400 400" xml:space="preserve">
<polygon opacity="0.95" fill="#E48D2B" enable-background="new    " points="283.8,276 251.8,271.2 255.4,282.4 267,298.4 
	280.2,298.4 286.2,289.6 "/>
<polygon opacity="0.85" fill="#C2B59B" enable-background="new    " points="204.2,86 143,86 139.8,116.4 124.2,145.2 123.4,193.6 
	140.6,246.4 177,282.4 204.2,282.4 "/>
<polygon fill="#FFFFFF" points="267,298.4 238.2,348.8 205.8,370.8 173.8,348.8 145,298.4 133,298.4 160.2,358 195.4,374.4 
	205.8,378.4 216.6,374.4 251.8,358 279,298.4 "/>
<polygon opacity="0.79" fill="#E48D2B" enable-background="new    " points="317.8,282.4 292.2,271.2 279,266.4 251.8,271.2 
	283.8,276 283.8,289.6 254.6,351.2 205.8,378.4 157,351.2 127.8,289.6 127.8,276 160.2,271.2 133,266.4 119.8,271.2 93.8,282.4 
	87,308.4 93,331.2 133,347.2 141.8,364 205.8,396 270.2,364 279,347.2 319,331.2 325,308.4 "/>
<polygon opacity="0.95" fill="#E48D2B" enable-background="new    " points="127.8,276 160.2,271.2 156.2,282.4 145,298.4 
	131.8,298.4 125.8,289.6 "/>
<polygon opacity="0.61" fill="#C49A6C" enable-background="new    " points="287.8,139.6 299.8,142.4 291.8,183.2 283.8,184.8 "/>
<polygon opacity="0.7" enable-background="new    " points="160.2,2.8 252.2,12 267.8,29.6 275.8,46 280.2,63.6 291,81.6 
	292.2,123.2 289.4,176.4 286.6,142.4 272.2,115.6 265.8,80.8 204.2,85.2 111,60 "/>
<polygon opacity="0.85" fill="#C2B59B" enable-background="new    " points="204.2,86 265,86 268.2,116.4 283.8,145.2 284.6,193.6 
	267.8,246.4 231,282.4 204.2,282.4 "/>
<polygon opacity="0.46" fill="#C49A6C" enable-background="new    " points="231,282.4 267.8,246.4 284.6,193.6 283.8,145.2 
	268.2,116.4 265,86 204.2,86 195.2,198.4 206.6,207.6 204.2,220.4 205.4,230.4 212.6,236.8 216.6,264 216.6,282.4 "/>
<polygon opacity="0.7" enable-background="new    " points="219,148.4 235.8,139.6 267,139.6 257,123.2 237,128 219,140.8 "/>
<polygon opacity="0.79" fill="#C2B59B" enable-background="new    " points="202.6,228 208.6,227.6 213.8,222.8 223.4,227.6 
	231.4,230.8 222.6,236 202.6,236 "/>
<polygon opacity="0.79" fill="#C2B59B" enable-background="new    " points="202.6,235.2 222.2,235.2 231.4,231.6 224.6,239.6 
	217.8,242.4 201.4,242.4 "/>
<polygon fill="#C2B59B" points="120.2,139.6 108.2,142.4 116.2,183.2 124.2,184.8 "/>
<polygon opacity="0.7" enable-background="new    " points="195.4,7.2 155.8,16.4 140.2,29.6 132.2,46 128.2,63.6 117,81.6 
	115.8,123.2 119,176.4 121.4,142.4 135.8,115.6 142.6,80.8 204.2,85.2 150.2,54.4 251.8,12.8 "/>
<polygon opacity="0.7" enable-background="new    " points="185,148.4 168.6,139.6 137.4,139.6 147.4,123.2 167.4,128 185,140.8 "/>
<polygon opacity="0.79" fill="#C2B59B" enable-background="new    " points="205.4,228 199.4,227.6 194.2,222.8 184.6,227.6 
	176.6,230.8 185.4,236 205.4,236 "/>
<polygon opacity="0.79" fill="#C2B59B" enable-background="new    " points="205.4,235.2 185.8,235.2 176.6,231.6 183.4,239.6 
	190.2,242.4 206.6,242.4 "/>
<path fill="#C2B59B" d="M205.4,228"/>
<polygon fill="#FFFFFF" points="224.2,158.4 232.2,149.6 251.8,148.4 263,155.2 251.8,162 227.8,162 "/>
<polygon fill="#FFFFFF" points="183.8,158.4 175.8,149.6 156.2,148.4 145,155.2 156.2,162 180.2,162 "/>
<polygon opacity="0.76" fill="#C2B59B" enable-background="new    " points="251.8,262 255.4,282.4 267,298.4 238.2,348.8 219,364 
	205.4,371.6 204.2,282.4 231,282.4 "/>
<polygon opacity="0.72" fill="#C49A6C" enable-background="new    " points="251.8,262 255.4,282.4 267,298.4 238.2,348.8 219,364 
	205.4,371.6 204.2,282.4 231,282.4 "/>
<polygon opacity="0.76" fill="#C2B59B" enable-background="new    " points="161,264.4 154.2,282.4 145.8,298.4 171.8,348.8 
	191,364 205.8,371.6 205.8,282.4 179,282.4 "/>
<polygon opacity="0.91" enable-background="new    " points="111,58.8 128.2,63.6 118.6,79.2 "/>
<polygon fill="#C49A6C" points="251.8,271.2 251.8,262 231,282.4 204.2,282.4 204.2,284.8 231.4,289.6 "/>
<polygon opacity="0.7" enable-background="new    " points="246.2,148.4 247.8,150.8 247.8,154 246.2,157.6 242.6,158.4 
	238.6,157.6 237,155.2 237,150.8 238.6,148.4 "/>
<polygon opacity="0.7" enable-background="new    " points="172.2,148.4 173.8,150.8 173.8,154 172.2,157.6 168.2,158.4 
	164.2,157.6 163,155.2 163,150.8 164.2,148.4 "/>
</svg>
