<?xml version="1.0" encoding="utf-8"?>
<!-- Generator: Adobe Illustrator 18.0.0, SVG Export Plug-In . SVG Version: 6.00 Build 0)  -->
<!DOCTYPE svg PUBLIC "-//W3C//DTD SVG 1.1//EN" "http://www.w3.org/Graphics/SVG/1.1/DTD/svg11.dtd">
<svg version="1.1" id="Layer_1" xmlns="http://www.w3.org/2000/svg" xmlns:xlink="http://www.w3.org/1999/xlink" x="0px" y="0px"
	 viewBox="0 0 200 100" enable-background="new 0 0 200 100" xml:space="preserve">
<polygon opacity="0.95" fill="#E48D2B" enable-background="new    " points="122.5,69 114.5,67.8 115.4,70.6 118.3,74.6 121.6,74.6 
	123.1,72.4 "/>
<polygon opacity="0.85" fill="#C2B59B" enable-background="new    " points="102.6,21.5 87.3,21.5 86.5,29.1 82.6,36.3 82.4,48.4 
	86.7,61.6 95.8,70.6 102.6,70.6 "/>
<polygon fill="#FFFFFF" points="118.3,74.6 111.1,87.2 103,92.7 95,87.2 87.8,74.6 84.8,74.6 91.6,89.5 100.4,93.6 103,94.6 
	105.7,93.6 114.5,89.5 121.3,74.6 "/>
<polygon opacity="0.79" fill="#E48D2B" enable-background="new    " points="131,70.6 124.6,67.8 121.3,66.6 114.5,67.8 122.5,69 
	122.5,72.4 115.2,87.8 103,94.6 90.8,87.8 83.5,72.4 83.5,69 91.6,67.8 84.8,66.6 81.5,67.8 75,70.6 73.3,77.1 74.8,82.8 84.8,86.8 
	87,91 103,99 119.1,91 121.3,86.8 131.3,82.8 132.8,77.1 "/>
<polygon opacity="0.95" fill="#E48D2B" enable-background="new    " points="83.5,69 91.6,67.8 90.6,70.6 87.8,74.6 84.5,74.6 
	83,72.4 "/>
<polygon opacity="0.61" fill="#C49A6C" enable-background="new    " points="123.5,34.9 126.5,35.6 124.5,45.8 122.5,46.2 "/>
<polygon opacity="0.7" enable-background="new    " points="91.6,0.7 114.6,3 118.5,7.4 120.5,11.5 121.6,15.9 124.3,20.4 
	124.6,30.8 123.9,44.1 123.2,35.6 119.6,28.9 118,20.2 102.6,21.3 79.3,15 "/>
<polygon opacity="0.85" fill="#C2B59B" enable-background="new    " points="102.6,21.5 117.8,21.5 118.6,29.1 122.5,36.3 
	122.7,48.4 118.5,61.6 109.3,70.6 102.6,70.6 "/>
<polygon opacity="0.46" fill="#C49A6C" enable-background="new    " points="109.3,70.6 118.5,61.6 122.7,48.4 122.5,36.3 
	118.6,29.1 117.8,21.5 102.6,21.5 98.6,50.6 103.2,51.9 102.6,55.1 102.9,57.6 104.7,59.2 105.7,66 105.7,70.6 "/>
<polygon opacity="0.7" enable-background="new    " points="106.3,37.1 110.5,34.9 118.3,34.9 115.8,30.8 110.8,32 106.3,35.2 "/>
<polygon opacity="0.79" fill="#C2B59B" enable-background="new    " points="102.2,57 103.7,56.9 105,55.7 107.4,56.9 109.4,57.7 
	107.2,59 102.2,59 "/>
<polygon opacity="0.79" fill="#C2B59B" enable-background="new    " points="102.2,58.8 107.1,58.8 109.4,57.9 107.7,59.9 106,60.6 
	101.9,60.6 "/>
<polygon fill="#C2B59B" points="81.6,34.9 78.6,35.6 80.6,45.8 82.6,46.2 "/>
<polygon opacity="0.7" enable-background="new    " points="100.4,1.8 90.5,4.1 86.6,7.4 84.6,11.5 83.6,15.9 80.8,20.4 80.5,30.8 
	81.3,44.1 81.9,35.6 85.5,28.9 87.2,20.2 102.6,21.3 89.1,13.6 114.5,3.2 "/>
<polygon opacity="0.7" enable-background="new    " points="97.8,37.1 93.7,34.9 85.9,34.9 88.4,30.8 93.4,32 97.8,35.2 "/>
<polygon opacity="0.79" fill="#C2B59B" enable-background="new    " points="102.9,57 101.4,56.9 100.1,55.7 97.7,56.9 95.7,57.7 
	97.9,59 102.9,59 "/>
<polygon opacity="0.79" fill="#C2B59B" enable-background="new    " points="102.9,58.8 98,58.8 95.7,57.9 97.4,59.9 99.1,60.6 
	103.2,60.6 "/>
<path fill="#C2B59B" d="M102.9,57"/>
<polygon fill="#FFFFFF" points="107.6,39.6 109.6,37.4 114.5,37.1 117.3,38.8 114.5,40.5 108.5,40.5 "/>
<polygon fill="#FFFFFF" points="97.5,39.6 95.5,37.4 90.6,37.1 87.8,38.8 90.6,40.5 96.6,40.5 "/>
<polygon opacity="0.76" fill="#C2B59B" enable-background="new    " points="114.5,65.5 115.4,70.6 118.3,74.6 111.1,87.2 106.3,91 
	102.9,92.9 102.6,70.6 109.3,70.6 "/>
<polygon opacity="0.72" fill="#C49A6C" enable-background="new    " points="114.5,65.5 115.4,70.6 118.3,74.6 111.1,87.2 106.3,91 
	102.9,92.9 102.6,70.6 109.3,70.6 "/>
<polygon opacity="0.76" fill="#C2B59B" enable-background="new    " points="91.8,66.1 90.1,70.6 88,74.6 94.5,87.2 99.3,91 
	103,92.9 103,70.6 96.3,70.6 "/>
<polygon opacity="0.91" enable-background="new    " points="79.3,14.7 83.6,15.9 81.2,19.8 "/>
<polygon fill="#C49A6C" points="114.5,67.8 114.5,65.5 109.3,70.6 102.6,70.6 102.6,71.2 109.4,72.4 "/>
<polygon opacity="0.7" enable-background="new    " points="113.1,37.1 113.5,37.7 113.5,38.5 113.1,39.4 112.2,39.6 111.2,39.4 
	110.8,38.8 110.8,37.7 111.2,37.1 "/>
<polygon opacity="0.7" enable-background="new    " points="94.6,37.1 95,37.7 95,38.5 94.6,39.4 93.6,39.6 92.6,39.4 92.3,38.8 
	92.3,37.7 92.6,37.1 "/>
</svg>
