<svg version="1.1" xmlns="http://www.w3.org/2000/svg" xmlns:xlink="http://www.w3.org/1999/xlink" x="0px" y="0px"
	 viewBox="0 0 211.333 354.709" style="enable-background:new 0 0 211.333 354.709;" xml:space="preserve">
<style type="text/css">
	.st0{opacity:0.74;fill:#FFFFFF;}
	.st1{opacity:0.56;fill:#FFFFFF;}
	.st2{opacity:0.9;fill:#291200;}
	.st3{opacity:0.71;fill:#F7941E;}
	.st4{opacity:0.6;fill:#F7941E;}
	.st5{opacity:0.68;fill:#FFFFFF;}
	.st6{opacity:0.76;fill:#AD3228;}
	.st7{opacity:0.51;fill:#C49A6C;}
	.st8{fill:#1C75BC;}
	.st9{opacity:0.9;}

	svg > path {
	width: 20%;
	height: 20%;
	}

	svg:hover #animate-part {
	-webkit-animation: wobble 10s ease-in-out 0s infinite alternate;
	}
</style>
<g id="helmet">
	<circle class="st0" cx="105.667" cy="112.376" r="105.667"/>
	<path class="st1" d="M174.042,44.651l-4.34,10.036l16.782,17.075C186.484,71.763,185.058,52.87,174.042,44.651z"/>
</g>
<g id="eyes">
	<circle class="st2" cx="61.405" cy="136.214" r="3.167"/>
	<circle class="st2" cx="149.5" cy="136.214" r="3.167"/>
</g>
<g id="tongue">
	<path class="st3" d="M146.333,186.989c0,0-18.761-12.5-40.881-12.5s-40.881,12.5-40.881,12.5
		c18.962,10.384,40.881,9.366,40.881,9.366S127.371,197.373,146.333,186.989z"/>
</g>
<g id="ears">
	<path class="st4" d="M172.207,128.698l0.404,9.112l1.745,3.229l7.618-1.357c0,0,3.148-1.387,3.56-6.625
		c0.412-5.238-6.14-6.523-6.14-6.523L172.207,128.698z"/>
	<path class="st4" d="M37.12,130.707l-0.389,9.113l-1.74,3.232l-7.621-1.344c0,0-3.15-1.382-3.571-6.619
		c-0.421-5.237,6.129-6.534,6.129-6.534L37.12,130.707z"/>
</g>
<g id="body">
	<path class="st5" d="M105.632,307.241l-65.754-4.531c0,0,14.327,44,29.04,48.667c14.714,4.667,36.714,3.333,36.714,3.333
		s22,1.333,36.714-3.333s29.04-48.667,29.04-48.667L105.632,307.241z"/>
	<polygon class="st6" points="145.712,212.887 106.832,212.718 106.832,212.709 65.952,212.532 33.24,250.39 39.678,304.418 
		104.646,308.475 104.646,308.71 171.185,304.999 178.093,251.029 	"/>
</g>
<g id="face">
	<path id="animate-part" class="st7" d="M177.286,128.989l-11-17.5l-12-12.5l-15.5-8.5l-14-3.5l-19.5-1l-19.5,1l-14,3.5l-15.5,8.5l-12,12.5l-11,17.5
		l-3,18l5,29.5l1.34,2.297c6.013,10.308,14.485,18.967,24.66,25.203h0l4,6h80l4-6l7.462-4.574c5.276-3.234,9.67-7.724,12.788-13.069
		l3.073-5.269c1.77-3.034,2.977-6.362,3.564-9.825l3.33-19.647c0.518-3.056,0.522-6.176,0.013-9.233L177.286,128.989z
		 M49.065,138.653c-1.002-7.954,5.687-14.644,13.641-13.641c5.42,0.683,9.797,5.06,10.48,10.479
		c1.003,7.955-5.687,14.644-13.641,13.641C54.125,148.45,49.748,144.073,49.065,138.653z M157.385,164.932
		c-1.753,7.012-8.322,31.228-51.765,31.344v0.005c-0.057,0-0.11-0.003-0.167-0.003c-0.057,0-0.11,0.003-0.167,0.003v-0.005
		c-43.443-0.116-50.012-24.332-51.765-31.344c-0.255-1.022,0.485-2.018,1.538-2.058c0,0,47.26-2.942,50.394-2.291
		c3.134-0.651,50.394,2.291,50.394,2.291C156.899,162.914,157.64,163.91,157.385,164.932z M151.361,149.133
		c-7.954,1.003-14.644-5.687-13.641-13.641c0.683-5.42,5.06-9.797,10.48-10.48c7.954-1.003,14.644,5.687,13.641,13.641
		C161.157,144.073,156.78,148.45,151.361,149.133z"/>
	<path class="st8" d="M105.038,308.573"/>
</g>
<g id="hair">
	<path class="st9" d="M176.03,126.241c-4.744,7.537-8.37,7.371-9.244,2.748c-0.874-4.623-3.539-20.11-6.205-23.443
		c-2.667-3.333-29.461-16.557-55.295-16.557s-49.833,12.252-55.167,18.626c-5.333,6.374-7.125,21.575-10.667,26.163
		c-3.541,4.587-7-6.789-7-25.789s21.667-25.667,21.667-25.667l-0.667-6.333l4,4.333c0,0,5.148-18.7,9.333-21.333s9-8.667,38.5-8.667
		s42.833,7.667,48.167,11.667c5.333,4,4.333,20.333,4.333,20.333l3.667-1.333l-0.881,8
		C160.571,88.989,181.273,104.493,176.03,126.241z"/>
</g>
</svg>
