<?xml version="1.0" encoding="utf-8"?>
<!-- Generator: Adobe Illustrator 18.0.0, SVG Export Plug-In . SVG Version: 6.00 Build 0)  -->
<!DOCTYPE svg PUBLIC "-//W3C//DTD SVG 1.1//EN" "http://www.w3.org/Graphics/SVG/1.1/DTD/svg11.dtd">
<svg version="1.1" id="Layer_1" xmlns="http://www.w3.org/2000/svg" xmlns:xlink="http://www.w3.org/1999/xlink" x="0px" y="0px"
	 viewBox="0 0 100 100" style="enable-background:new 0 0 100 100;" xml:space="preserve">
<style type="text/css">
	.st0{fill:#FBB040;}
	.st1{fill:#FFFFFF;}
</style>
<rect x="-123.095" y="-4.714" class="st0" width="103.428" height="103.095"/>
<path class="st1" d="M16.49,37.245l3.906,23.684h0.124l4.154-23.684h9.3l4.402,23.684H38.5l4.03-23.684h8.184l-7.192,33.356h-9.734
	l-4.402-23.684h-0.124l-4.154,23.684h-9.92L7.934,37.245H16.49z"/>
<path class="st1" d="M69.313,26.333c3.101,0,5.601,0.507,7.502,1.519c1.901,1.013,3.379,2.459,4.434,4.34
	c1.054,1.881,1.767,4.145,2.139,6.789c0.372,2.646,0.558,5.602,0.558,8.866c0,3.886-0.238,7.265-0.713,10.137
	c-0.476,2.874-1.292,5.239-2.448,7.099c-1.158,1.86-2.708,3.246-4.65,4.154c-1.943,0.91-4.402,1.364-7.378,1.364H54.682V26.333
	H69.313z M67.578,64.029c1.57,0,2.83-0.27,3.781-0.807c0.95-0.537,1.705-1.426,2.264-2.666c0.558-1.24,0.93-2.873,1.115-4.898
	c0.187-2.024,0.279-4.546,0.279-7.563c0-2.521-0.083-4.732-0.248-6.634c-0.165-1.9-0.507-3.481-1.022-4.743
	c-0.518-1.261-1.282-2.211-2.294-2.852c-1.014-0.641-2.367-0.961-4.062-0.961h-3.782v31.125H67.578z"/>
<circle class="st1" cx="88.029" cy="68.184" r="2.417"/>
</svg>
